<svg width="75" height="99" viewBox="0 0 75 99" fill="none" xmlns="http://www.w3.org/2000/svg">
<path d="M0.792 51.584C1.98667 52.2667 3.224 52.9067 4.504 53.504C5.784 54.016 7.10667 54.4 8.472 54.656C9.83733 54.912 11.1173 55.04 12.312 55.04C14.9573 55.04 17.176 54.4 18.968 53.12C20.8453 51.84 21.784 49.8347 21.784 47.104C21.784 46.4213 21.784 44.928 21.784 42.624C21.784 40.32 21.784 37.504 21.784 34.176C21.784 30.848 21.784 27.3493 21.784 23.68C21.784 20.0107 21.784 16.512 21.784 13.184C21.784 9.856 21.784 6.99733 21.784 4.60799C21.784 2.21866 21.784 0.68266 21.784 -7.62939e-06H74.904C74.904 3.328 74.904 7.68 74.904 13.056C74.904 18.432 74.904 23.936 74.904 29.568C74.904 32.2987 74.904 34.9867 74.904 37.632C74.904 40.2773 74.904 42.7947 74.904 45.184C74.904 47.488 74.904 49.6213 74.904 51.584C74.904 53.4613 74.904 55.04 74.904 56.32C74.904 57.5147 74.904 58.3253 74.904 58.752C74.904 66.176 73.6667 72.448 71.192 77.568C68.7173 82.6027 65.3893 86.656 61.208 89.728C57.0267 92.8 52.3333 95.0187 47.128 96.384C41.9227 97.7493 36.5893 98.432 31.128 98.432C25.3253 98.432 19.864 97.92 14.744 96.896C9.624 95.872 4.97333 94.1227 0.792 91.648V51.584Z" fill="white"/>
</svg>
